ply
format ascii 1.0
comment Created by Blender3D 248 - www.blender.org, source file: Frigat.blend
element vertex 594
property float x
property float y
property float z
property float nx
property float ny
property float nz
element face 215
property list uchar uint vertex_indices
end_header
1.000000 1.426591 -1.000000 0.000000 0.000000 -1.000000 
1.000000 -3.596700 -1.000000 0.000000 0.000000 -1.000000 
-1.000000 -3.596700 -1.000000 0.000000 0.000000 -1.000000 
-1.000000 1.426591 -1.000000 0.000000 0.000000 -1.000000 
1.000000 1.426590 0.019474 0.000000 -0.000000 1.000000 
-1.000000 1.426591 0.019474 0.000000 -0.000000 1.000000 
-1.000000 -3.596700 0.019474 0.000000 -0.000000 1.000000 
0.999999 -3.596701 0.019474 0.000000 -0.000000 1.000000 
1.000000 1.426591 -1.000000 1.000000 -0.000000 0.000000 
1.000000 1.426590 0.019474 1.000000 -0.000000 0.000000 
0.999999 -3.596701 0.019474 1.000000 -0.000000 0.000000 
1.000000 -3.596700 -1.000000 1.000000 -0.000000 0.000000 
1.000000 -3.596700 -1.000000 -0.000000 -1.000000 -0.000000 
0.999999 -3.596701 0.019474 -0.000000 -1.000000 -0.000000 
-1.000000 -3.596700 0.019474 -0.000000 -1.000000 -0.000000 
-1.000000 -3.596700 -1.000000 -0.000000 -1.000000 -0.000000 
-1.000000 -3.596700 -1.000000 -1.000000 0.000000 -0.000000 
-1.000000 -3.596700 0.019474 -1.000000 0.000000 -0.000000 
-1.000000 1.426591 0.019474 -1.000000 0.000000 -0.000000 
-1.000000 1.426591 -1.000000 -1.000000 0.000000 -0.000000 
1.000000 1.426590 0.019474 0.000000 1.000000 0.000000 
1.000000 1.426591 -1.000000 0.000000 1.000000 0.000000 
-1.000000 1.426591 -1.000000 0.000000 1.000000 0.000000 
-1.000000 1.426591 0.019474 0.000000 1.000000 0.000000 
-1.000000 1.426591 -1.000000 0.000000 0.000000 1.000000 
1.000000 1.426591 -1.000000 0.000000 0.000000 1.000000 
2.900000 2.297709 -1.000000 0.000000 0.000000 1.000000 
-2.900000 2.297709 -1.000000 0.000000 0.000000 1.000000 
1.000000 1.426591 -1.000000 -0.416767 0.909013 0.000001 
1.000000 1.426590 0.019474 -0.416767 0.909013 0.000001 
2.900000 2.297708 0.019474 -0.416767 0.909013 0.000001 
2.900000 2.297709 -1.000000 -0.416767 0.909013 0.000001 
-1.000000 1.426591 0.019474 0.416767 0.909013 0.000000 
-1.000000 1.426591 -1.000000 0.416767 0.909013 0.000000 
-2.900000 2.297709 -1.000000 0.416767 0.909013 0.000000 
-2.900000 2.297709 0.019474 0.416767 0.909013 0.000000 
1.000000 1.426590 0.019474 0.000000 -0.000000 -1.000000 
-1.000000 1.426591 0.019474 0.000000 -0.000000 -1.000000 
-2.900000 2.297709 0.019474 0.000000 -0.000000 -1.000000 
2.900000 2.297708 0.019474 0.000000 -0.000000 -1.000000 
3.000000 3.681248 -1.000000 0.000000 0.000000 1.000000 
-3.000000 3.681249 -1.000000 0.000000 0.000000 1.000000 
2.900000 2.297709 -1.000000 -0.997398 0.072090 0.000001 
2.900000 2.297708 0.019474 -0.997398 0.072090 0.000001 
3.000000 3.681248 0.019474 -0.997398 0.072090 0.000001 
3.000000 3.681248 -1.000000 -0.997398 0.072090 0.000001 
-2.900000 2.297709 0.019474 0.997398 0.072090 0.000000 
-2.900000 2.297709 -1.000000 0.997398 0.072090 0.000000 
-3.000000 3.681249 -1.000000 0.997398 0.072090 0.000000 
-3.000000 3.681248 0.019474 0.997398 0.072090 0.000000 
-3.000000 3.681248 0.019474 0.000000 -0.000000 -1.000000 
3.000000 3.681248 0.019474 0.000000 -0.000000 -1.000000 
2.500000 5.064591 -1.000000 0.000000 0.000000 1.000000 
-2.500000 5.064789 -1.000000 0.000000 0.000000 1.000000 
3.000000 3.681248 -1.000000 -0.940454 -0.339921 0.000000 
3.000000 3.681248 0.019474 -0.940454 -0.339921 0.000000 
2.500000 5.064590 0.019474 -0.940454 -0.339921 0.000000 
2.500000 5.064591 -1.000000 -0.940454 -0.339921 0.000000 
-3.000000 3.681248 0.019474 0.940470 -0.339878 0.000000 
-3.000000 3.681249 -1.000000 0.940470 -0.339878 0.000000 
-2.500000 5.064789 -1.000000 0.940470 -0.339878 0.000000 
-2.500000 5.064789 0.019474 0.940470 -0.339878 0.000000 
-2.500000 5.064789 0.019474 0.000000 -0.000000 -1.000000 
2.500000 5.064590 0.019474 0.000000 -0.000000 -1.000000 
0.962733 6.243163 -1.000000 0.000000 0.000000 1.000000 
-1.065218 6.243360 -1.000000 0.000000 0.000000 1.000000 
2.500000 5.064591 -1.000000 -0.608432 -0.793606 -0.000000 
2.500000 5.064590 0.019474 -0.608432 -0.793606 -0.000000 
0.962734 6.243162 0.019474 -0.608432 -0.793606 -0.000000 
0.962733 6.243163 -1.000000 -0.608432 -0.793606 -0.000000 
-2.500000 5.064789 0.019474 0.634739 -0.772726 0.000000 
-2.500000 5.064789 -1.000000 0.634739 -0.772726 0.000000 
-1.065218 6.243360 -1.000000 0.634739 -0.772726 0.000000 
-1.065218 6.243360 0.019474 0.634739 -0.772726 0.000000 
-1.065218 6.243360 0.019474 0.000000 -0.000000 -1.000000 
0.962734 6.243162 0.019474 0.000000 -0.000000 -1.000000 
0.962733 6.243163 -1.000000 -0.000098 -1.000000 -0.000000 
0.962734 6.243162 0.019474 -0.000098 -1.000000 -0.000000 
-1.065218 6.243360 0.019474 -0.000098 -1.000000 -0.000000 
-1.065218 6.243360 -1.000000 -0.000098 -1.000000 -0.000000 
-1.588112 -1.022888 -0.426411 -0.000000 -0.999817 0.019152 
-1.171246 -1.044724 -1.566276 -0.000000 -0.999817 0.019152 
-1.097929 -1.040044 -1.321998 -0.000000 -0.999817 0.019152 
-1.588112 -2.867401 -0.426451 -0.000000 0.999817 -0.019153 
-1.097928 -2.884557 -1.322034 -0.000000 0.999817 -0.019153 
-1.171245 -2.889237 -1.566313 -0.000000 0.999817 -0.019153 
-1.588112 -1.022888 -0.426411 0.000000 -0.999817 0.019153 
-1.097929 -1.040044 -1.321998 0.000000 -0.999817 0.019153 
-1.043450 -1.034706 -1.043302 0.000000 -0.999817 0.019153 
-1.588112 -2.867401 -0.426451 0.000000 0.999817 -0.019152 
-1.043449 -2.879219 -1.043338 0.000000 0.999817 -0.019152 
-1.097928 -2.884557 -1.322034 0.000000 0.999817 -0.019152 
-1.588112 -1.022888 -0.426411 -0.000001 -0.999817 0.019152 
-1.043450 -1.034706 -1.043302 -0.000001 -0.999817 0.019152 
-1.009902 -1.028913 -0.740900 -0.000001 -0.999817 0.019152 
-1.009902 -2.873426 -0.740935 0.000000 0.999817 -0.019153 
-1.043449 -2.879219 -1.043338 0.000000 0.999817 -0.019153 
-1.009902 -1.028913 -0.740900 0.000000 -0.999817 0.019153 
-0.998574 -1.022888 -0.426412 0.000000 -0.999817 0.019153 
-0.998574 -2.867401 -0.426447 0.000000 0.999817 -0.019153 
-0.998574 -1.022888 -0.426412 0.000000 -0.999817 0.019152 
-1.009902 -1.016864 -0.111924 0.000000 -0.999817 0.019152 
-1.009902 -2.861377 -0.111960 0.000000 0.999817 -0.019153 
-1.009902 -1.016864 -0.111924 -0.000000 -0.999817 0.019153 
-1.043450 -1.011071 0.190479 -0.000000 -0.999817 0.019153 
-1.043450 -2.855584 0.190442 -0.000000 0.999817 -0.019152 
-1.009902 -2.861377 -0.111960 -0.000000 0.999817 -0.019152 
-1.043450 -1.011071 0.190479 0.000000 -0.999817 0.019152 
-1.097929 -1.005733 0.469174 0.000000 -0.999817 0.019152 
-1.588112 -2.867401 -0.426451 -0.000001 0.999817 -0.019152 
-1.097929 -2.850246 0.469137 -0.000001 0.999817 -0.019152 
-1.043450 -2.855584 0.190442 -0.000001 0.999817 -0.019152 
-1.097929 -1.005733 0.469174 -0.000000 -0.999817 0.019153 
-1.171246 -1.001053 0.713453 -0.000000 -0.999817 0.019153 
-1.171246 -2.845567 0.713414 -0.000000 0.999817 -0.019152 
-1.097929 -2.850246 0.469137 -0.000000 0.999817 -0.019152 
-1.171246 -1.001053 0.713453 0.000000 -0.999817 0.019152 
-1.260582 -0.997213 0.913928 0.000000 -0.999817 0.019152 
-1.588112 -2.867401 -0.426451 0.000002 0.999817 -0.019153 
-1.260582 -2.841726 0.913888 0.000002 0.999817 -0.019153 
-1.171246 -2.845567 0.713414 0.000002 0.999817 -0.019153 
-1.362505 -0.994359 1.062894 -0.000000 -0.999817 0.019152 
-1.362505 -2.838872 1.062854 0.000002 0.999817 -0.019153 
-1.588112 -1.022888 -0.426411 0.000001 -0.999817 0.019152 
-1.362505 -0.994359 1.062894 0.000001 -0.999817 0.019152 
-1.473099 -0.992602 1.154626 0.000001 -0.999817 0.019152 
-1.588112 -2.867401 -0.426451 -0.000003 0.999817 -0.019152 
-1.473098 -2.837116 1.154587 -0.000003 0.999817 -0.019152 
-1.362505 -2.838872 1.062854 -0.000003 0.999817 -0.019152 
-1.588112 -0.992009 1.185601 0.000001 -0.999817 0.019152 
-1.588111 -2.836522 1.185561 -0.000001 0.999817 -0.019152 
-1.473098 -2.837116 1.154587 -0.000001 0.999817 -0.019152 
-1.588112 -0.992009 1.185601 -0.000001 -0.999817 0.019152 
-1.703125 -0.992602 1.154626 -0.000001 -0.999817 0.019152 
-1.588112 -2.867401 -0.426451 0.000001 0.999817 -0.019152 
-1.703124 -2.837116 1.154587 0.000001 0.999817 -0.019152 
-1.588111 -2.836522 1.185561 0.000001 0.999817 -0.019152 
-1.813718 -0.994359 1.062893 -0.000001 -0.999817 0.019152 
-1.588112 -2.867401 -0.426451 0.000002 0.999817 -0.019152 
-1.813717 -2.838872 1.062855 0.000002 0.999817 -0.019152 
-1.703124 -2.837116 1.154587 0.000002 0.999817 -0.019152 
-1.813718 -0.994359 1.062893 0.000000 -0.999817 0.019152 
-1.915642 -0.997213 0.913927 0.000000 -0.999817 0.019152 
-1.588112 -2.867401 -0.426451 -0.000002 0.999817 -0.019153 
-1.915640 -2.841726 0.913890 -0.000002 0.999817 -0.019153 
-1.813717 -2.838872 1.062855 -0.000002 0.999817 -0.019153 
-1.915642 -0.997213 0.913927 -0.000001 -0.999817 0.019152 
-2.004978 -1.001053 0.713452 -0.000001 -0.999817 0.019152 
-2.004977 -2.845567 0.713416 -0.000002 0.999817 -0.019153 
-2.004978 -1.001053 0.713452 0.000000 -0.999817 0.019153 
-2.078295 -1.005733 0.469174 0.000000 -0.999817 0.019153 
-1.588112 -2.867401 -0.426451 0.000002 0.999817 -0.019151 
-2.078293 -2.850246 0.469139 0.000002 0.999817 -0.019151 
-2.004977 -2.845567 0.713416 0.000002 0.999817 -0.019151 
-2.078295 -1.005733 0.469174 -0.000000 -0.999817 0.019152 
-2.132774 -1.011071 0.190477 -0.000000 -0.999817 0.019152 
-2.132773 -2.855584 0.190444 -0.000000 0.999817 -0.019152 
-2.078293 -2.850246 0.469139 -0.000000 0.999817 -0.019152 
-2.132774 -1.011071 0.190477 0.000000 -0.999817 0.019153 
-2.166322 -1.016864 -0.111925 0.000000 -0.999817 0.019153 
-2.166321 -2.861377 -0.111957 0.000000 0.999817 -0.019152 
-2.177649 -1.022889 -0.426413 0.000000 -0.999817 0.019153 
-2.177649 -2.867401 -0.426444 -0.000000 0.999817 -0.019153 
-2.166321 -2.861377 -0.111957 -0.000000 0.999817 -0.019153 
-2.177649 -1.022889 -0.426413 0.000000 -0.999817 0.019152 
-2.166322 -1.028913 -0.740901 0.000000 -0.999817 0.019152 
-2.166322 -2.873426 -0.740931 -0.000000 0.999817 -0.019153 
-2.132773 -1.034706 -1.043303 0.000000 -0.999817 0.019152 
-2.132775 -2.879218 -1.043333 -0.000001 0.999817 -0.019152 
-2.166322 -2.873426 -0.740931 -0.000001 0.999817 -0.019152 
-2.078294 -1.040044 -1.321999 -0.000000 -0.999817 0.019152 
-1.588112 -2.867401 -0.426451 0.000001 0.999817 -0.019153 
-2.078296 -2.884557 -1.322029 0.000001 0.999817 -0.019153 
-2.132775 -2.879218 -1.043333 0.000001 0.999817 -0.019153 
-2.078294 -1.040044 -1.321999 -0.000000 -0.999817 0.019153 
-2.004977 -1.044724 -1.566277 -0.000000 -0.999817 0.019153 
-2.004980 -2.889237 -1.566308 -0.000000 0.999817 -0.019153 
-2.078296 -2.884557 -1.322029 -0.000000 0.999817 -0.019153 
-2.004977 -1.044724 -1.566277 0.000000 -0.999817 0.019152 
-1.915640 -1.048564 -1.766752 0.000000 -0.999817 0.019152 
-1.588112 -2.867401 -0.426451 -0.000002 0.999817 -0.019152 
-1.915644 -2.893077 -1.766784 -0.000002 0.999817 -0.019152 
-2.004980 -2.889237 -1.566308 -0.000002 0.999817 -0.019152 
-1.813717 -1.051417 -1.915717 -0.000000 -0.999817 0.019152 
-1.813722 -2.895931 -1.915751 0.000002 0.999817 -0.019153 
-1.915644 -2.893077 -1.766784 0.000002 0.999817 -0.019153 
-1.813717 -1.051417 -1.915717 0.000001 -0.999817 0.019152 
-1.703124 -1.053175 -2.007449 0.000001 -0.999817 0.019152 
-1.703129 -2.897687 -2.007486 -0.000003 0.999817 -0.019152 
-1.813722 -2.895931 -1.915751 -0.000003 0.999817 -0.019152 
-1.703124 -1.053175 -2.007449 -0.000001 -0.999817 0.019152 
-1.588110 -1.053768 -2.038423 -0.000001 -0.999817 0.019152 
-1.588116 -2.898281 -2.038462 0.000002 0.999817 -0.019153 
-1.703129 -2.897687 -2.007486 0.000002 0.999817 -0.019153 
-1.588110 -1.053768 -2.038423 0.000001 -0.999817 0.019152 
-1.473097 -1.053175 -2.007448 0.000001 -0.999817 0.019152 
-1.588112 -2.867401 -0.426451 -0.000001 0.999817 -0.019153 
-1.473103 -2.897688 -2.007490 -0.000001 0.999817 -0.019153 
-1.588116 -2.898281 -2.038462 -0.000001 0.999817 -0.019153 
-1.473097 -1.053175 -2.007448 -0.000001 -0.999817 0.019152 
-1.362504 -1.051417 -1.915715 -0.000001 -0.999817 0.019152 
-1.362510 -2.895931 -1.915761 0.000002 0.999817 -0.019152 
-1.473103 -2.897688 -2.007490 0.000002 0.999817 -0.019152 
-1.362504 -1.051417 -1.915715 0.000000 -0.999817 0.019152 
-1.260581 -1.048564 -1.766749 0.000000 -0.999817 0.019152 
-1.260586 -2.893077 -1.766797 -0.000001 0.999817 -0.019153 
-1.362510 -2.895931 -1.915761 -0.000001 0.999817 -0.019153 
-1.171245 -2.889237 -1.566313 0.000000 0.999817 -0.019152 
-1.260586 -2.893077 -1.766797 0.000000 0.999817 -0.019152 
-1.171246 -1.044724 -1.566276 -0.957791 -0.000006 0.287466 
-1.171245 -2.889237 -1.566313 -0.957791 -0.000006 0.287466 
-1.097928 -2.884557 -1.322034 -0.957791 -0.000006 0.287466 
-1.097929 -1.040044 -1.321998 -0.957791 -0.000006 0.287466 
-1.097929 -1.040044 -1.321998 -0.981425 -0.000004 0.191848 
-1.097928 -2.884557 -1.322034 -0.981425 -0.000004 0.191848 
-1.043449 -2.879219 -1.043338 -0.981425 -0.000004 0.191848 
-1.043450 -1.034706 -1.043302 -0.981425 -0.000004 0.191848 
-1.043450 -1.034706 -1.043302 -0.993903 -0.000002 0.110261 
-1.043449 -2.879219 -1.043338 -0.993903 -0.000002 0.110261 
-1.009902 -2.873426 -0.740935 -0.993903 -0.000002 0.110261 
-1.009902 -1.028913 -0.740900 -0.993903 -0.000002 0.110261 
-1.009902 -1.028913 -0.740900 -0.999352 -0.000001 0.035996 
-1.009902 -2.873426 -0.740935 -0.999352 -0.000001 0.035996 
-0.998574 -2.867401 -0.426447 -0.999352 -0.000001 0.035996 
-0.998574 -1.022888 -0.426412 -0.999352 -0.000001 0.035996 
-0.998574 -1.022888 -0.426412 -0.999352 0.000001 -0.035996 
-0.998574 -2.867401 -0.426447 -0.999352 0.000001 -0.035996 
-1.009902 -2.861377 -0.111960 -0.999352 0.000001 -0.035996 
-1.009902 -1.016864 -0.111924 -0.999352 0.000001 -0.035996 
-1.009902 -1.016864 -0.111924 -0.993902 0.000002 -0.110263 
-1.009902 -2.861377 -0.111960 -0.993902 0.000002 -0.110263 
-1.043450 -2.855584 0.190442 -0.993902 0.000002 -0.110263 
-1.043450 -1.011071 0.190479 -0.993902 0.000002 -0.110263 
-1.043450 -1.011071 0.190479 -0.981425 0.000004 -0.191848 
-1.043450 -2.855584 0.190442 -0.981425 0.000004 -0.191848 
-1.097929 -2.850246 0.469137 -0.981425 0.000004 -0.191848 
-1.097929 -1.005733 0.469174 -0.981425 0.000004 -0.191848 
-1.097929 -1.005733 0.469174 -0.957791 0.000006 -0.287466 
-1.097929 -2.850246 0.469137 -0.957791 0.000006 -0.287466 
-1.171246 -2.845567 0.713414 -0.957791 0.000006 -0.287466 
-1.171246 -1.001053 0.713453 -0.957791 0.000006 -0.287466 
-1.171246 -1.001053 0.713453 -0.913410 0.000009 -0.407040 
-1.171246 -2.845567 0.713414 -0.913410 0.000009 -0.407040 
-1.260582 -2.841726 0.913888 -0.913410 0.000009 -0.407040 
-1.260582 -0.997213 0.913928 -0.913410 0.000009 -0.407040 
-1.260582 -0.997213 0.913928 -0.825309 0.000012 -0.564681 
-1.260582 -2.841726 0.913888 -0.825309 0.000012 -0.564681 
-1.362505 -2.838872 1.062854 -0.825309 0.000012 -0.564681 
-1.362505 -0.994359 1.062894 -0.825309 0.000012 -0.564681 
-1.362505 -0.994359 1.062894 -0.638424 0.000016 -0.769685 
-1.362505 -2.838872 1.062854 -0.638424 0.000016 -0.769685 
-1.473098 -2.837116 1.154587 -0.638424 0.000016 -0.769685 
-1.473099 -0.992602 1.154626 -0.638424 0.000016 -0.769685 
-1.473099 -0.992602 1.154626 -0.260047 0.000021 -0.965596 
-1.473098 -2.837116 1.154587 -0.260047 0.000021 -0.965596 
-1.588111 -2.836522 1.185561 -0.260047 0.000021 -0.965596 
-1.588112 -0.992009 1.185601 -0.260047 0.000021 -0.965596 
-1.588112 -0.992009 1.185601 0.260045 0.000021 -0.965596 
-1.588111 -2.836522 1.185561 0.260045 0.000021 -0.965596 
-1.703124 -2.837116 1.154587 0.260045 0.000021 -0.965596 
-1.703125 -0.992602 1.154626 0.260045 0.000021 -0.965596 
-1.703125 -0.992602 1.154626 0.638422 0.000016 -0.769687 
-1.703124 -2.837116 1.154587 0.638422 0.000016 -0.769687 
-1.813717 -2.838872 1.062855 0.638422 0.000016 -0.769687 
-1.813718 -0.994359 1.062893 0.638422 0.000016 -0.769687 
-1.813718 -0.994359 1.062893 0.825309 0.000012 -0.564681 
-1.813717 -2.838872 1.062855 0.825309 0.000012 -0.564681 
-1.915640 -2.841726 0.913890 0.825309 0.000012 -0.564681 
-1.915642 -0.997213 0.913927 0.825309 0.000012 -0.564681 
-1.915642 -0.997213 0.913927 0.913411 0.000009 -0.407039 
-1.915640 -2.841726 0.913890 0.913411 0.000009 -0.407039 
-2.004977 -2.845567 0.713416 0.913411 0.000009 -0.407039 
-2.004978 -1.001053 0.713452 0.913411 0.000009 -0.407039 
-2.004978 -1.001053 0.713452 0.957790 0.000006 -0.287468 
-2.004977 -2.845567 0.713416 0.957790 0.000006 -0.287468 
-2.078293 -2.850246 0.469139 0.957790 0.000006 -0.287468 
-2.078295 -1.005733 0.469174 0.957790 0.000006 -0.287468 
-2.078295 -1.005733 0.469174 0.981425 0.000004 -0.191848 
-2.078293 -2.850246 0.469139 0.981425 0.000004 -0.191848 
-2.132773 -2.855584 0.190444 0.981425 0.000004 -0.191848 
-2.132774 -1.011071 0.190477 0.981425 0.000004 -0.191848 
-2.132774 -1.011071 0.190477 0.993903 0.000002 -0.110263 
-2.132773 -2.855584 0.190444 0.993903 0.000002 -0.110263 
-2.166321 -2.861377 -0.111957 0.993903 0.000002 -0.110263 
-2.166322 -1.016864 -0.111925 0.993903 0.000002 -0.110263 
-2.166322 -1.016864 -0.111925 0.999352 0.000001 -0.035997 
-2.166321 -2.861377 -0.111957 0.999352 0.000001 -0.035997 
-2.177649 -2.867401 -0.426444 0.999352 0.000001 -0.035997 
-2.177649 -1.022889 -0.426413 0.999352 0.000001 -0.035997 
-2.177649 -1.022889 -0.426413 0.999352 -0.000001 0.035996 
-2.177649 -2.867401 -0.426444 0.999352 -0.000001 0.035996 
-2.166322 -2.873426 -0.740931 0.999352 -0.000001 0.035996 
-2.166322 -1.028913 -0.740901 0.999352 -0.000001 0.035996 
-2.166322 -1.028913 -0.740901 0.993903 -0.000002 0.110262 
-2.166322 -2.873426 -0.740931 0.993903 -0.000002 0.110262 
-2.132775 -2.879218 -1.043333 0.993903 -0.000002 0.110262 
-2.132773 -1.034706 -1.043303 0.993903 -0.000002 0.110262 
-2.132773 -1.034706 -1.043303 0.981425 -0.000004 0.191847 
-2.132775 -2.879218 -1.043333 0.981425 -0.000004 0.191847 
-2.078296 -2.884557 -1.322029 0.981425 -0.000004 0.191847 
-2.078294 -1.040044 -1.321999 0.981425 -0.000004 0.191847 
-2.078294 -1.040044 -1.321999 0.957791 -0.000006 0.287466 
-2.078296 -2.884557 -1.322029 0.957791 -0.000006 0.287466 
-2.004980 -2.889237 -1.566308 0.957791 -0.000006 0.287466 
-2.004977 -1.044724 -1.566277 0.957791 -0.000006 0.287466 
-2.004977 -1.044724 -1.566277 0.913412 -0.000009 0.407037 
-2.004980 -2.889237 -1.566308 0.913412 -0.000009 0.407037 
-1.915644 -2.893077 -1.766784 0.913412 -0.000009 0.407037 
-1.915640 -1.048564 -1.766752 0.913412 -0.000009 0.407037 
-1.915640 -1.048564 -1.766752 0.825311 -0.000012 0.564679 
-1.915644 -2.893077 -1.766784 0.825311 -0.000012 0.564679 
-1.813722 -2.895931 -1.915751 0.825311 -0.000012 0.564679 
-1.813717 -1.051417 -1.915717 0.825311 -0.000012 0.564679 
-1.813717 -1.051417 -1.915717 0.638426 -0.000016 0.769683 
-1.813722 -2.895931 -1.915751 0.638426 -0.000016 0.769683 
-1.703129 -2.897687 -2.007486 0.638426 -0.000016 0.769683 
-1.703124 -1.053175 -2.007449 0.638426 -0.000016 0.769683 
-1.703124 -1.053175 -2.007449 0.260054 -0.000021 0.965594 
-1.703129 -2.897687 -2.007486 0.260054 -0.000021 0.965594 
-1.588116 -2.898281 -2.038462 0.260054 -0.000021 0.965594 
-1.588110 -1.053768 -2.038423 0.260054 -0.000021 0.965594 
-1.588110 -1.053768 -2.038423 -0.260040 -0.000020 0.965598 
-1.588116 -2.898281 -2.038462 -0.260040 -0.000020 0.965598 
-1.473103 -2.897688 -2.007490 -0.260040 -0.000020 0.965598 
-1.473097 -1.053175 -2.007448 -0.260040 -0.000020 0.965598 
-1.473097 -1.053175 -2.007448 -0.638419 -0.000016 0.769689 
-1.473103 -2.897688 -2.007490 -0.638419 -0.000016 0.769689 
-1.362510 -2.895931 -1.915761 -0.638419 -0.000016 0.769689 
-1.362504 -1.051417 -1.915715 -0.638419 -0.000016 0.769689 
-1.362504 -1.051417 -1.915715 -0.825308 -0.000012 0.564684 
-1.362510 -2.895931 -1.915761 -0.825308 -0.000012 0.564684 
-1.260586 -2.893077 -1.766797 -0.825308 -0.000012 0.564684 
-1.260581 -1.048564 -1.766749 -0.825308 -0.000012 0.564684 
-1.260581 -1.048564 -1.766749 -0.913410 -0.000008 0.407041 
-1.260586 -2.893077 -1.766797 -0.913410 -0.000008 0.407041 
-1.171245 -2.889237 -1.566313 -0.913410 -0.000008 0.407041 
-1.171246 -1.044724 -1.566276 -0.913410 -0.000008 0.407041 
1.898890 -1.048564 -1.778854 -0.913410 -0.000008 0.407041 
1.898885 -2.893077 -1.778902 -0.913410 -0.000008 0.407041 
1.988227 -2.889237 -1.578418 -0.913410 -0.000008 0.407041 
1.988225 -1.044724 -1.578381 -0.913410 -0.000008 0.407041 
1.796967 -1.051417 -1.927820 -0.825308 -0.000012 0.564684 
1.796961 -2.895931 -1.927866 -0.825308 -0.000012 0.564684 
1.898885 -2.893077 -1.778902 -0.825308 -0.000012 0.564684 
1.898890 -1.048564 -1.778854 -0.825308 -0.000012 0.564684 
1.686374 -1.053175 -2.019553 -0.638419 -0.000016 0.769689 
1.686368 -2.897688 -2.019596 -0.638419 -0.000016 0.769689 
1.796961 -2.895931 -1.927866 -0.638419 -0.000016 0.769689 
1.796967 -1.051417 -1.927820 -0.638419 -0.000016 0.769689 
1.571361 -1.053768 -2.050529 -0.260040 -0.000020 0.965598 
1.571355 -2.898281 -2.050568 -0.260040 -0.000020 0.965598 
1.686368 -2.897688 -2.019596 -0.260040 -0.000020 0.965598 
1.686374 -1.053175 -2.019553 -0.260040 -0.000020 0.965598 
1.456347 -1.053175 -2.019555 0.260054 -0.000021 0.965594 
1.456342 -2.897687 -2.019591 0.260054 -0.000021 0.965594 
1.571355 -2.898281 -2.050568 0.260054 -0.000021 0.965594 
1.571361 -1.053768 -2.050529 0.260054 -0.000021 0.965594 
1.345754 -1.051417 -1.927822 0.638426 -0.000016 0.769683 
1.345749 -2.895931 -1.927856 0.638426 -0.000016 0.769683 
1.456342 -2.897687 -2.019591 0.638426 -0.000016 0.769683 
1.456347 -1.053175 -2.019555 0.638426 -0.000016 0.769683 
1.243831 -1.048564 -1.778857 0.825311 -0.000012 0.564679 
1.243827 -2.893077 -1.778889 0.825311 -0.000012 0.564679 
1.345749 -2.895931 -1.927856 0.825311 -0.000012 0.564679 
1.345754 -1.051417 -1.927822 0.825311 -0.000012 0.564679 
1.154494 -1.044724 -1.578383 0.913412 -0.000009 0.407037 
1.154491 -2.889237 -1.578414 0.913412 -0.000009 0.407037 
1.243827 -2.893077 -1.778889 0.913412 -0.000009 0.407037 
1.243831 -1.048564 -1.778857 0.913412 -0.000009 0.407037 
1.081177 -1.040044 -1.334104 0.957791 -0.000006 0.287466 
1.081175 -2.884557 -1.334134 0.957791 -0.000006 0.287466 
1.154491 -2.889237 -1.578414 0.957791 -0.000006 0.287466 
1.154494 -1.044724 -1.578383 0.957791 -0.000006 0.287466 
1.026698 -1.034706 -1.055408 0.981425 -0.000004 0.191847 
1.026696 -2.879218 -1.055439 0.981425 -0.000004 0.191847 
1.081175 -2.884557 -1.334134 0.981425 -0.000004 0.191847 
1.081177 -1.040044 -1.334104 0.981425 -0.000004 0.191847 
0.993149 -1.028913 -0.753007 0.993903 -0.000002 0.110262 
0.993149 -2.873426 -0.753036 0.993903 -0.000002 0.110262 
1.026696 -2.879218 -1.055439 0.993903 -0.000002 0.110262 
1.026698 -1.034706 -1.055408 0.993903 -0.000002 0.110262 
0.981822 -1.022889 -0.438518 0.999352 -0.000001 0.035996 
0.981822 -2.867401 -0.438549 0.999352 -0.000001 0.035996 
0.993149 -2.873426 -0.753036 0.999352 -0.000001 0.035996 
0.993149 -1.028913 -0.753007 0.999352 -0.000001 0.035996 
0.993149 -1.016864 -0.124030 0.999352 0.000001 -0.035997 
0.993150 -2.861377 -0.124062 0.999352 0.000001 -0.035997 
0.981822 -2.867401 -0.438549 0.999352 0.000001 -0.035997 
0.981822 -1.022889 -0.438518 0.999352 0.000001 -0.035997 
1.026697 -1.011071 0.178372 0.993903 0.000002 -0.110263 
1.026698 -2.855584 0.178339 0.993903 0.000002 -0.110263 
0.993150 -2.861377 -0.124062 0.993903 0.000002 -0.110263 
0.993149 -1.016864 -0.124030 0.993903 0.000002 -0.110263 
1.081176 -1.005733 0.457068 0.981425 0.000004 -0.191848 
1.081178 -2.850246 0.457034 0.981425 0.000004 -0.191848 
1.026698 -2.855584 0.178339 0.981425 0.000004 -0.191848 
1.026697 -1.011071 0.178372 0.981425 0.000004 -0.191848 
1.154493 -1.001053 0.701347 0.957790 0.000006 -0.287468 
1.154495 -2.845567 0.701311 0.957790 0.000006 -0.287468 
1.081178 -2.850246 0.457034 0.957790 0.000006 -0.287468 
1.081176 -1.005733 0.457068 0.957790 0.000006 -0.287468 
1.243829 -0.997213 0.901822 0.913411 0.000009 -0.407039 
1.243831 -2.841726 0.901784 0.913411 0.000009 -0.407039 
1.154495 -2.845567 0.701311 0.913411 0.000009 -0.407039 
1.154493 -1.001053 0.701347 0.913411 0.000009 -0.407039 
1.345753 -0.994359 1.050788 0.825309 0.000012 -0.564681 
1.345754 -2.838872 1.050750 0.825309 0.000012 -0.564681 
1.243831 -2.841726 0.901784 0.825309 0.000012 -0.564681 
1.243829 -0.997213 0.901822 0.825309 0.000012 -0.564681 
1.456346 -0.992602 1.142521 0.638422 0.000016 -0.769687 
1.456347 -2.837116 1.142482 0.638422 0.000016 -0.769687 
1.345754 -2.838872 1.050750 0.638422 0.000016 -0.769687 
1.345753 -0.994359 1.050788 0.638422 0.000016 -0.769687 
1.571359 -0.992009 1.173495 0.260045 0.000021 -0.965596 
1.571360 -2.836522 1.173456 0.260045 0.000021 -0.965596 
1.456347 -2.837116 1.142482 0.260045 0.000021 -0.965596 
1.456346 -0.992602 1.142521 0.260045 0.000021 -0.965596 
1.686373 -0.992602 1.142521 -0.260047 0.000021 -0.965596 
1.686373 -2.837116 1.142481 -0.260047 0.000021 -0.965596 
1.571360 -2.836522 1.173456 -0.260047 0.000021 -0.965596 
1.571359 -0.992009 1.173495 -0.260047 0.000021 -0.965596 
1.796966 -0.994359 1.050788 -0.638424 0.000016 -0.769685 
1.796966 -2.838872 1.050748 -0.638424 0.000016 -0.769685 
1.686373 -2.837116 1.142481 -0.638424 0.000016 -0.769685 
1.686373 -0.992602 1.142521 -0.638424 0.000016 -0.769685 
1.898889 -0.997213 0.901822 -0.825309 0.000012 -0.564681 
1.898889 -2.841726 0.901783 -0.825309 0.000012 -0.564681 
1.796966 -2.838872 1.050748 -0.825309 0.000012 -0.564681 
1.796966 -0.994359 1.050788 -0.825309 0.000012 -0.564681 
1.988225 -1.001053 0.701348 -0.913410 0.000009 -0.407040 
1.988225 -2.845567 0.701309 -0.913410 0.000009 -0.407040 
1.898889 -2.841726 0.901783 -0.913410 0.000009 -0.407040 
1.898889 -0.997213 0.901822 -0.913410 0.000009 -0.407040 
2.061542 -1.005733 0.457069 -0.957791 0.000006 -0.287466 
2.061542 -2.850246 0.457031 -0.957791 0.000006 -0.287466 
1.988225 -2.845567 0.701309 -0.957791 0.000006 -0.287466 
1.988225 -1.001053 0.701348 -0.957791 0.000006 -0.287466 
2.116021 -1.011071 0.178373 -0.981425 0.000004 -0.191848 
2.116021 -2.855584 0.178336 -0.981425 0.000004 -0.191848 
2.061542 -2.850246 0.457031 -0.981425 0.000004 -0.191848 
2.061542 -1.005733 0.457069 -0.981425 0.000004 -0.191848 
2.149570 -1.016864 -0.124029 -0.993902 0.000002 -0.110264 
2.149570 -2.861377 -0.124065 -0.993902 0.000002 -0.110264 
2.116021 -2.855584 0.178336 -0.993902 0.000002 -0.110264 
2.116021 -1.011071 0.178373 -0.993902 0.000002 -0.110264 
2.160897 -1.022888 -0.438517 -0.999352 0.000001 -0.035996 
2.160897 -2.867401 -0.438552 -0.999352 0.000001 -0.035996 
2.149570 -2.861377 -0.124065 -0.999352 0.000001 -0.035996 
2.149570 -1.016864 -0.124029 -0.999352 0.000001 -0.035996 
2.149570 -1.028913 -0.753005 -0.999352 -0.000001 0.035996 
2.149570 -2.873426 -0.753040 -0.999352 -0.000001 0.035996 
2.160897 -2.867401 -0.438552 -0.999352 -0.000001 0.035996 
2.160897 -1.022888 -0.438517 -0.999352 -0.000001 0.035996 
2.116021 -1.034706 -1.055407 -0.993903 -0.000002 0.110262 
2.116022 -2.879219 -1.055443 -0.993903 -0.000002 0.110262 
2.149570 -2.873426 -0.753040 -0.993903 -0.000002 0.110262 
2.149570 -1.028913 -0.753005 -0.993903 -0.000002 0.110262 
2.061542 -1.040044 -1.334103 -0.981425 -0.000004 0.191848 
2.061543 -2.884557 -1.334139 -0.981425 -0.000004 0.191848 
2.116022 -2.879219 -1.055443 -0.981425 -0.000004 0.191848 
2.116021 -1.034706 -1.055407 -0.981425 -0.000004 0.191848 
1.988225 -1.044724 -1.578381 -0.957791 -0.000006 0.287465 
1.988227 -2.889237 -1.578418 -0.957791 -0.000006 0.287465 
2.061543 -2.884557 -1.334139 -0.957791 -0.000006 0.287465 
2.061542 -1.040044 -1.334103 -0.957791 -0.000006 0.287465 
1.571359 -2.867401 -0.438556 0.000000 0.999817 -0.019152 
1.988227 -2.889237 -1.578418 0.000000 0.999817 -0.019152 
1.898885 -2.893077 -1.778902 0.000000 0.999817 -0.019152 
1.571359 -1.022888 -0.438517 -0.000000 -0.999817 0.019152 
1.898890 -1.048564 -1.778854 -0.000000 -0.999817 0.019152 
1.988225 -1.044724 -1.578381 -0.000000 -0.999817 0.019152 
1.571359 -2.867401 -0.438556 -0.000001 0.999817 -0.019153 
1.898885 -2.893077 -1.778902 -0.000001 0.999817 -0.019153 
1.796961 -2.895931 -1.927866 -0.000001 0.999817 -0.019153 
1.796967 -1.051417 -1.927820 0.000000 -0.999817 0.019152 
1.571359 -2.867401 -0.438556 0.000002 0.999817 -0.019152 
1.796961 -2.895931 -1.927866 0.000002 0.999817 -0.019152 
1.686368 -2.897688 -2.019596 0.000002 0.999817 -0.019152 
1.571359 -1.022888 -0.438517 -0.000001 -0.999817 0.019152 
1.686374 -1.053175 -2.019553 -0.000001 -0.999817 0.019152 
1.796967 -1.051417 -1.927820 -0.000001 -0.999817 0.019152 
1.686368 -2.897688 -2.019596 -0.000001 0.999817 -0.019153 
1.571355 -2.898281 -2.050568 -0.000001 0.999817 -0.019153 
1.571359 -1.022888 -0.438517 0.000001 -0.999817 0.019152 
1.571361 -1.053768 -2.050529 0.000001 -0.999817 0.019152 
1.686374 -1.053175 -2.019553 0.000001 -0.999817 0.019152 
1.571359 -2.867401 -0.438556 0.000002 0.999817 -0.019153 
1.571355 -2.898281 -2.050568 0.000002 0.999817 -0.019153 
1.456342 -2.897687 -2.019591 0.000002 0.999817 -0.019153 
1.456347 -1.053175 -2.019555 -0.000001 -0.999817 0.019152 
1.571361 -1.053768 -2.050529 -0.000001 -0.999817 0.019152 
1.571359 -2.867401 -0.438556 -0.000003 0.999817 -0.019152 
1.456342 -2.897687 -2.019591 -0.000003 0.999817 -0.019152 
1.345749 -2.895931 -1.927856 -0.000003 0.999817 -0.019152 
1.345754 -1.051417 -1.927822 0.000001 -0.999817 0.019152 
1.456347 -1.053175 -2.019555 0.000001 -0.999817 0.019152 
1.345749 -2.895931 -1.927856 0.000002 0.999817 -0.019153 
1.243827 -2.893077 -1.778889 0.000002 0.999817 -0.019153 
1.243831 -1.048564 -1.778857 -0.000000 -0.999817 0.019152 
1.345754 -1.051417 -1.927822 -0.000000 -0.999817 0.019152 
1.571359 -2.867401 -0.438556 -0.000002 0.999817 -0.019152 
1.243827 -2.893077 -1.778889 -0.000002 0.999817 -0.019152 
1.154491 -2.889237 -1.578414 -0.000002 0.999817 -0.019152 
1.154494 -1.044724 -1.578383 0.000000 -0.999817 0.019152 
1.571359 -2.867401 -0.438556 -0.000000 0.999817 -0.019153 
1.154491 -2.889237 -1.578414 -0.000000 0.999817 -0.019153 
1.081175 -2.884557 -1.334134 -0.000000 0.999817 -0.019153 
1.571359 -1.022888 -0.438517 -0.000000 -0.999817 0.019153 
1.081177 -1.040044 -1.334104 -0.000000 -0.999817 0.019153 
1.154494 -1.044724 -1.578383 -0.000000 -0.999817 0.019153 
1.571359 -2.867401 -0.438556 0.000001 0.999817 -0.019153 
1.081175 -2.884557 -1.334134 0.000001 0.999817 -0.019153 
1.026696 -2.879218 -1.055439 0.000001 0.999817 -0.019153 
1.026698 -1.034706 -1.055408 -0.000000 -0.999817 0.019152 
1.081177 -1.040044 -1.334104 -0.000000 -0.999817 0.019152 
1.571359 -2.867401 -0.438556 -0.000001 0.999817 -0.019152 
1.026696 -2.879218 -1.055439 -0.000001 0.999817 -0.019152 
0.993149 -2.873426 -0.753036 -0.000001 0.999817 -0.019152 
0.993149 -1.028913 -0.753007 0.000000 -0.999817 0.019152 
0.993149 -2.873426 -0.753036 -0.000000 0.999817 -0.019153 
0.981822 -2.867401 -0.438549 -0.000000 0.999817 -0.019153 
0.981822 -1.022889 -0.438518 0.000000 -0.999817 0.019152 
0.993150 -2.861377 -0.124062 -0.000000 0.999817 -0.019153 
0.993149 -1.016864 -0.124030 0.000000 -0.999817 0.019153 
0.981822 -1.022889 -0.438518 0.000000 -0.999817 0.019153 
0.993150 -2.861377 -0.124062 0.000000 0.999817 -0.019152 
1.026698 -2.855584 0.178339 0.000000 0.999817 -0.019152 
1.026697 -1.011071 0.178372 0.000000 -0.999817 0.019153 
1.081178 -2.850246 0.457034 -0.000000 0.999817 -0.019152 
1.081176 -1.005733 0.457068 -0.000000 -0.999817 0.019152 
1.026697 -1.011071 0.178372 -0.000000 -0.999817 0.019152 
1.571359 -2.867401 -0.438556 0.000002 0.999817 -0.019151 
1.081178 -2.850246 0.457034 0.000002 0.999817 -0.019151 
1.154495 -2.845567 0.701311 0.000002 0.999817 -0.019151 
1.154493 -1.001053 0.701347 0.000000 -0.999817 0.019153 
1.081176 -1.005733 0.457068 0.000000 -0.999817 0.019153 
1.571359 -2.867401 -0.438556 -0.000002 0.999817 -0.019153 
1.154495 -2.845567 0.701311 -0.000002 0.999817 -0.019153 
1.243831 -2.841726 0.901784 -0.000002 0.999817 -0.019153 
1.243829 -0.997213 0.901822 -0.000001 -0.999817 0.019152 
1.154493 -1.001053 0.701347 -0.000001 -0.999817 0.019152 
1.345754 -2.838872 1.050750 -0.000002 0.999817 -0.019153 
1.345753 -0.994359 1.050788 0.000000 -0.999817 0.019152 
1.243829 -0.997213 0.901822 0.000000 -0.999817 0.019152 
1.345754 -2.838872 1.050750 0.000002 0.999817 -0.019152 
1.456347 -2.837116 1.142482 0.000002 0.999817 -0.019152 
1.456346 -0.992602 1.142521 -0.000001 -0.999817 0.019152 
1.345753 -0.994359 1.050788 -0.000001 -0.999817 0.019152 
1.571359 -2.867401 -0.438556 0.000001 0.999817 -0.019152 
1.456347 -2.837116 1.142482 0.000001 0.999817 -0.019152 
1.571360 -2.836522 1.173456 0.000001 0.999817 -0.019152 
1.571359 -0.992009 1.173495 -0.000001 -0.999817 0.019152 
1.571360 -2.836522 1.173456 -0.000001 0.999817 -0.019152 
1.686373 -2.837116 1.142481 -0.000001 0.999817 -0.019152 
1.686373 -0.992602 1.142521 0.000001 -0.999817 0.019152 
1.571359 -0.992009 1.173495 0.000001 -0.999817 0.019152 
1.686373 -2.837116 1.142481 -0.000003 0.999817 -0.019152 
1.796966 -2.838872 1.050748 -0.000003 0.999817 -0.019152 
1.796966 -0.994359 1.050788 0.000001 -0.999817 0.019152 
1.796966 -2.838872 1.050748 0.000002 0.999817 -0.019153 
1.898889 -2.841726 0.901783 0.000002 0.999817 -0.019153 
1.898889 -0.997213 0.901822 -0.000000 -0.999817 0.019152 
1.796966 -0.994359 1.050788 -0.000000 -0.999817 0.019152 
1.988225 -2.845567 0.701309 0.000002 0.999817 -0.019153 
1.988225 -1.001053 0.701348 0.000000 -0.999817 0.019152 
1.988225 -2.845567 0.701309 -0.000000 0.999817 -0.019152 
2.061542 -2.850246 0.457031 -0.000000 0.999817 -0.019152 
2.061542 -1.005733 0.457069 -0.000000 -0.999817 0.019153 
1.988225 -1.001053 0.701348 -0.000000 -0.999817 0.019153 
2.061542 -2.850246 0.457031 -0.000001 0.999817 -0.019152 
2.116021 -2.855584 0.178336 -0.000001 0.999817 -0.019152 
2.116021 -1.011071 0.178373 0.000000 -0.999817 0.019152 
2.061542 -1.005733 0.457069 0.000000 -0.999817 0.019152 
2.116021 -2.855584 0.178336 -0.000000 0.999817 -0.019152 
2.149570 -2.861377 -0.124065 -0.000000 0.999817 -0.019152 
2.149570 -1.016864 -0.124029 -0.000000 -0.999817 0.019153 
2.116021 -1.011071 0.178373 -0.000000 -0.999817 0.019153 
2.149570 -2.861377 -0.124065 0.000000 0.999817 -0.019153 
2.160897 -2.867401 -0.438552 0.000000 0.999817 -0.019153 
2.160897 -1.022888 -0.438517 0.000000 -0.999817 0.019152 
2.149570 -1.016864 -0.124029 0.000000 -0.999817 0.019152 
2.149570 -2.873426 -0.753040 0.000000 0.999817 -0.019153 
2.149570 -1.028913 -0.753005 0.000000 -0.999817 0.019153 
2.160897 -1.022888 -0.438517 0.000000 -0.999817 0.019153 
2.116022 -2.879219 -1.055443 0.000000 0.999817 -0.019153 
2.116021 -1.034706 -1.055407 -0.000001 -0.999817 0.019152 
2.149570 -1.028913 -0.753005 -0.000001 -0.999817 0.019152 
2.116022 -2.879219 -1.055443 0.000000 0.999817 -0.019152 
2.061543 -2.884557 -1.334139 0.000000 0.999817 -0.019152 
2.061542 -1.040044 -1.334103 0.000000 -0.999817 0.019153 
2.116021 -1.034706 -1.055407 0.000000 -0.999817 0.019153 
2.061543 -2.884557 -1.334139 -0.000000 0.999817 -0.019153 
1.988227 -2.889237 -1.578418 -0.000000 0.999817 -0.019153 
2.061542 -1.040044 -1.334103 -0.000000 -0.999817 0.019152 
4 0 1 2 3 
4 4 5 6 7 
4 8 9 10 11 
4 12 13 14 15 
4 16 17 18 19 
4 20 21 22 23 
4 24 25 26 27 
4 28 29 30 31 
4 32 33 34 35 
4 36 37 38 39 
4 27 26 40 41 
4 42 43 44 45 
4 46 47 48 49 
4 39 38 50 51 
4 41 40 52 53 
4 54 55 56 57 
4 58 59 60 61 
4 51 50 62 63 
4 53 52 64 65 
4 66 67 68 69 
4 70 71 72 73 
4 63 62 74 75 
4 76 77 78 79 
3 80 81 82 
3 83 84 85 
3 86 87 88 
3 89 90 91 
3 92 93 94 
3 83 95 96 
3 86 97 98 
3 83 99 95 
3 80 100 101 
3 83 102 99 
3 86 103 104 
3 89 105 106 
3 80 107 108 
3 109 110 111 
3 86 112 113 
3 89 114 115 
3 80 116 117 
3 118 119 120 
3 80 117 121 
3 118 122 119 
3 123 124 125 
3 126 127 128 
3 123 125 129 
3 109 130 131 
3 92 132 133 
3 134 135 136 
3 92 133 137 
3 138 139 140 
3 80 141 142 
3 143 144 145 
3 92 146 147 
3 143 148 144 
3 86 149 150 
3 151 152 153 
3 80 154 155 
3 89 156 157 
3 86 158 159 
3 89 160 156 
3 86 159 161 
3 83 162 163 
3 80 164 165 
3 83 166 162 
3 80 165 167 
3 109 168 169 
3 80 167 170 
3 171 172 173 
3 86 174 175 
3 83 176 177 
3 80 178 179 
3 180 181 182 
3 80 179 183 
3 118 184 185 
3 123 186 187 
3 126 188 189 
3 92 190 191 
3 118 192 193 
3 123 194 195 
3 196 197 198 
3 92 199 200 
3 138 201 202 
3 80 203 204 
3 196 205 206 
3 80 204 81 
3 89 207 208 
4 209 210 211 212 
4 213 214 215 216 
4 217 218 219 220 
4 221 222 223 224 
4 225 226 227 228 
4 229 230 231 232 
4 233 234 235 236 
4 237 238 239 240 
4 241 242 243 244 
4 245 246 247 248 
4 249 250 251 252 
4 253 254 255 256 
4 257 258 259 260 
4 261 262 263 264 
4 265 266 267 268 
4 269 270 271 272 
4 273 274 275 276 
4 277 278 279 280 
4 281 282 283 284 
4 285 286 287 288 
4 289 290 291 292 
4 293 294 295 296 
4 297 298 299 300 
4 301 302 303 304 
4 305 306 307 308 
4 309 310 311 312 
4 313 314 315 316 
4 317 318 319 320 
4 321 322 323 324 
4 325 326 327 328 
4 329 330 331 332 
4 333 334 335 336 
4 337 338 339 340 
4 341 342 343 344 
4 345 346 347 348 
4 349 350 351 352 
4 353 354 355 356 
4 357 358 359 360 
4 361 362 363 364 
4 365 366 367 368 
4 369 370 371 372 
4 373 374 375 376 
4 377 378 379 380 
4 381 382 383 384 
4 385 386 387 388 
4 389 390 391 392 
4 393 394 395 396 
4 397 398 399 400 
4 401 402 403 404 
4 405 406 407 408 
4 409 410 411 412 
4 413 414 415 416 
4 417 418 419 420 
4 421 422 423 424 
4 425 426 427 428 
4 429 430 431 432 
4 433 434 435 436 
4 437 438 439 440 
4 441 442 443 444 
4 445 446 447 448 
4 449 450 451 452 
4 453 454 455 456 
4 457 458 459 460 
4 461 462 463 464 
3 465 466 467 
3 468 469 470 
3 471 472 473 
3 468 474 469 
3 475 476 477 
3 478 479 480 
3 471 481 482 
3 483 484 485 
3 486 487 488 
3 478 489 490 
3 491 492 493 
3 483 494 495 
3 486 496 497 
3 468 498 499 
3 500 501 502 
3 468 503 498 
3 504 505 506 
3 507 508 509 
3 510 511 512 
3 468 513 514 
3 515 516 517 
3 468 518 513 
3 504 519 520 
3 468 521 518 
3 504 520 522 
3 507 523 524 
3 465 525 526 
3 507 527 523 
3 465 526 528 
3 468 529 530 
3 531 532 533 
3 507 534 535 
3 536 537 538 
3 478 539 540 
3 536 538 541 
3 468 542 543 
3 475 544 545 
3 478 546 547 
3 548 549 550 
3 478 551 546 
3 515 552 553 
3 483 554 555 
3 491 556 557 
3 483 558 554 
3 486 559 560 
3 468 561 562 
3 486 560 563 
3 468 564 561 
3 465 565 566 
3 507 567 568 
3 515 569 570 
3 468 571 572 
3 465 573 574 
3 507 575 576 
3 504 577 578 
3 468 579 580 
3 504 578 581 
3 507 582 583 
3 504 581 584 
3 478 585 586 
3 465 587 588 
3 507 589 590 
3 504 591 592 
3 468 470 593 
